<?xml version="1.0" encoding="UTF-8" standalone="no"?>
<!-- Created with Inkscape (http://www.inkscape.org/) by Marsupilami -->
<svg
   xmlns:svg="http://www.w3.org/2000/svg"
   xmlns="http://www.w3.org/2000/svg"
   version="1.0"
   width="1024"
   height="218"
   viewBox="0 0 686.00562 146.125"
   id="svg2403"
   xml:space="preserve"><defs
     id="defs2406" /><g
     transform="matrix(1.25,0,0,-1.25,-94.275375,223.39875)"
     id="g2412"><g
       transform="scale(0.1,0.1)"
       id="g2414"><path
         d="M 658.40625,0 C 659.84125,1.86875 661.01626,3.90375 661.84375,6.25 C 665.08375,15.45125 663.78375,26.293751 657.90625,38.40625 C 645.985,62.9725 615.85626,90.492247 584.78125,106.84375 C 590.3625,105.43313 595.28,104.43312 601.4375,103.4375 C 628.625,99.0435 652.88128,100.42575 664.40625,106.125 C 673.415,95.0145 681.63003,76.3075 685.15625,54.90625 C 689.75,27.01 674.98126,2.36 658.40625,0 z M 611.28125,0.65625 C 593.36197,0.73761046 570.51164,3.7211719 544.3125,9.71875 C 553.18251,19.23875 560.47625,33.00625 564.96875,49.34375 C 572.12377,75.363749 568.46125,98.516625 558.34375,111.46875 C 607.44378,95.699004 662.68625,42.855 652.53125,14.53125 C 649.20407,5.2507032 634.32033,0.5516437 611.28125,0.65625 z M 313.6875,46.9375 C 313.68749,46.937501 313.6875,75.52 313.6875,78.625 C 306.52374,73.8825 296.52375,71.15625 285.875,71.15625 C 258.79626,71.156247 239.90625,86.5435 239.90625,108.59375 C 239.90625,130.64163 258.79625,146.03125 285.875,146.03125 C 296.49751,146.03125 306.0325,143.64163 313.6875,139.21875 C 313.68749,140.82863 313.6875,144.1875 313.6875,144.1875 L 331.875,144.1875 L 331.875,108.375 C 331.875,108.38875 331.875,108.25 331.875,108.25 L 331.875,46.9375 L 313.6875,46.9375 z M 0,56.625 C 0,59.581249 0.03125,144.4375 0.03125,144.4375 L 18.25,144.4375 L 18.21875,85.75 L 73.9375,144.21875 L 91.53125,144.375 L 91.53125,56.65625 L 73.3125,56.65625 L 73.3125,116.59375 L 18.0625,56.625 L 0,56.625 z M 484.59375,71.1875 C 457.515,71.187501 438.59375,86.61075 438.59375,108.65625 C 438.59374,131.05763 456.95125,146.09375 484.25,146.09375 C 495.34375,146.09375 505.43,144.14937 512.375,139.3125 C 512.375,141.22062 512.375,144.28125 512.375,144.28125 L 530.5625,144.28125 L 530.5625,109.03125 C 530.56252,86.406375 512.0975,71.1875 484.59375,71.1875 z M 238.5,71.21875 C 236.10245,71.321749 225.97672,72.156719 217.34375,78.6875 C 217.34375,77.138751 217.34375,73.09375 217.34375,73.09375 L 199.1875,73.09375 L 199.1875,144.21875 L 217.5,144.21875 L 217.5,106.34375 C 217.50001,99.86625 218.2525,93.29625 227,90.09375 C 229.8975,89.032502 232.79,88.55375 236.40625,88.5625 L 239.03125,88.5625 L 239.03125,71.21875 C 239.03125,71.21875 238.84251,71.204036 238.5,71.21875 z M 386.28125,71.21875 C 359.865,71.03875 340.4375,86.674625 340.4375,109.0625 C 340.43375,128.94287 358.07625,146.05812 386.28125,146.09375 C 396.58875,146.1065 405.26375,144.30713 413.1875,139.96875 C 421.90875,135.18988 429.65624,127.21088 431.96875,115.75 L 410.09375,120.5 C 406.1625,126.05962 397.74125,130.563 386.28125,130.40625 C 376.63,130.2725 369.0525,127.25775 364.28125,121.6875 C 365.255,121.478 432.68749,106.8715 432.6875,106.84375 C 431.90875,93.2075 421.3775,71.45125 386.28125,71.21875 z M 145.25,71.25 C 118.1725,71.250003 99.25,86.638375 99.25,108.6875 C 99.250001,130.73538 118.1725,146.125 145.25,146.125 C 172.3275,146.12499 191.25,130.73537 191.25,108.6875 C 191.24999,86.638379 172.3275,71.25 145.25,71.25 z M 386.28125,86.75 C 397.50375,86.835 405.51875,90.836251 409.46875,96.03125 C 407.01125,96.56375 361.95749,106.32225 359.6875,106.8125 C 360.44625,95.33975 370.8375,87.172499 386.28125,86.75 z M 483.0625,86.90625 C 483.55904,86.889314 484.08664,86.90625 484.59375,86.90625 C 500.81875,86.906252 511.71875,95.6445 511.71875,108.65625 C 511.71875,121.667 500.81875,130.40625 484.59375,130.40625 C 468.36625,130.40625 457.4375,121.667 457.4375,108.65625 C 457.43751,96.051121 467.66972,87.431276 483.0625,86.90625 z M 145.25,86.9375 C 161.475,86.937501 172.375,95.673 172.375,108.6875 C 172.375,121.69638 161.475,130.4375 145.25,130.4375 C 129.025,130.4375 118.125,121.69637 118.125,108.6875 C 118.125,95.673002 129.025,86.9375 145.25,86.9375 z M 285.875,86.9375 C 302.10001,86.937501 313,95.673 313,108.6875 C 313.00001,121.69638 302.1,130.4375 285.875,130.4375 C 269.65126,130.4375 258.75,121.69637 258.75,108.6875 C 258.75001,95.673002 269.65125,86.9375 285.875,86.9375 z "
         transform="matrix(8,0,0,-8,754.203,1787.19)"
         style="fill:#005284;fill-opacity:1;fill-rule:nonzero;stroke:none"
         id="path2416" /></g></g></svg>
